<svg xmlns="http://www.w3.org/2000/svg" viewBox="0 0 120 120" fill="none">
  <rect width="120" height="120" rx="24" fill="#063B5C"/>
  <path d="M42 25C42 21.6863 44.6863 19 48 19H62C80.7777 19 96 34.2223 96 53C96 71.7777 80.7777 87 62 87H47V101C47 104.314 44.3137 107 41 107C37.6863 107 35 104.314 35 101V25H42ZM47 31V81H62C74.1503 81 84 71.1503 84 59C84 46.8497 74.1503 37 62 37H47V31Z" fill="#F7F5EF"/>
  <path d="M25 85C25 72.2975 34.2975 63 47 63C52.6831 63 57.8554 64.7305 62.1886 68.068L57.9784 75.5528C55.3315 73.6175 51.8775 72.6034 48 72.6034C41.4718 72.6034 36 78.0752 36 84.6034V94H25V85Z" fill="#16A98D"/>
</svg>
